<?xml version="1.0" encoding="UTF-8"?>
<svg width="1023px" height="635px" viewBox="0 0 1023 635" version="1.1" xmlns="http://www.w3.org/2000/svg" xmlns:xlink="http://www.w3.org/1999/xlink">
    <title>形状结合</title>
    <defs>
        <linearGradient x1="-1.33355834e-15%" y1="57.4535488%" x2="100%" y2="57.4535488%" id="linearGradient-1">
            <stop stop-color="#18DCF8" offset="0%"></stop>
            <stop stop-color="#0085FE" offset="100%"></stop>
        </linearGradient>
    </defs>
    <g id="页面-1" stroke="none" stroke-width="1" fill="none" fill-rule="evenodd">
        <path d="M459.2194,333.1687 C464.579432,344.429553 463.84676,354.355691 462.32115,364.450682 L462.154899,365.533003 C462.098631,365.894038 462.041594,366.255356 461.984028,366.617027 L461.809986,367.703165 L461.722228,368.247156 L461.546145,369.337236 L461.458181,369.883428 L461.272109,371.049141 C460.163165,378.055788 459.22044,385.29402 460.1424,393.2457 C461.710817,406.774235 473.136715,414.681942 486.267682,421.366781 L487.165521,421.820722 L488.099271,422.286658 L489.037425,422.749212 L489.979348,423.208729 C490.765677,423.590488 491.555271,423.96944 492.346474,424.346477 L493.296582,424.798059 L494.908675,425.56022 L496.520282,426.319755 C506.450668,430.998894 516.17681,435.62352 522.4324,441.9557 C541.6404,461.3977 534.6464,499.6647 569.6434,503.7457 C577.6934,504.684188 584.439229,503.931428 591.03996,503.226602 L592.170309,503.106569 L593.176006,503.002002 C602.056946,502.092497 610.901745,501.612261 622.5564,505.8317 C641.1914,512.5787 651.1534,529.2697 667.0984,537.2897 C677.867915,542.706598 687.628873,537.674997 696.832984,531.203126 L697.497377,530.732897 C697.829095,530.496654 698.1601,530.258813 698.490413,530.0198 L699.150123,529.540335 C699.589323,529.219818 700.027318,528.89772 700.464159,528.57505 L701.342535,527.924631 C701.634817,527.70777 701.926594,527.490957 702.217882,527.274496 L703.090289,526.626474 L703.95985,525.982399 C707.143133,523.63026 710.27086,521.39462 713.3634,519.6817 C749.1804,499.8437 798.8144,516.7997 810.5434,556.8447 C828.0364,616.5737 756.6884,656.7407 709.1194,622.2687 C705.150309,619.392791 700.684936,614.483985 695.976104,609.44395 L695.210415,608.625797 L694.826045,608.216421 L694.054403,607.398196 C686.706001,599.632679 678.860885,592.165609 671.4434,591.9497 C657.5584,591.5457 636.9214,607.0127 623.7154,612.0337 C599.5604,621.2187 571.9174,613.6747 556.2064,593.1827 C549.441824,584.359791 546.727808,575.124168 544.281661,565.688643 L543.897102,564.197193 L543.513685,562.702607 C541.977896,556.718237 540.390127,550.663064 537.7974,544.5907 C533.0614,533.4977 528.2244,532.3567 516.5194,530.8687 C496.0174,528.2637 480.5984,532.7007 460.3544,524.0337 C437.5244,514.2597 423.5784,490.3037 428.3084,465.6267 C429.9484,457.0687 433.3394,449.5997 434.0224,440.3407 C435.5894,419.0887 433.7914,414.9837 415.9554,404.4337 C403.7294,397.2017 389.7304,394.0817 379.0244,384.3637 C348.6054,356.7507 365.8424,309.3927 405.8304,305.1477 C427.1884,302.8807 449.8104,313.4007 459.2194,333.1687 Z M404.9713,609.2888 C391.3783,619.0358 372.4533,608.1838 375.1043,591.4138 C375.9993,585.7528 383.1743,579.0528 388.7723,578.0968 C408.6763,574.6988 420.8563,597.8988 404.9713,609.2888 Z M267.9723,606.2905 C245.4243,622.3265 210.6793,604.8485 213.0493,576.3585 C214.1393,563.2515 225.6923,550.1285 238.7753,548.0935 C275.6163,542.3615 297.9153,584.9955 267.9723,606.2905 Z M946.9167,527.2345 C938.6457,578.4275 872.7937,594.6195 834.5567,563.8315 C787.3697,525.8365 810.8677,457.4735 869.8347,452.1525 C911.8107,448.3645 954.0167,483.2965 946.9167,527.2345 Z M162.0479,538.3661 C122.9519,570.4091 59.8129,532.0761 76.9969,482.3151 C82.4759,466.4511 100.1599,452.3621 116.7939,450.1121 C169.1929,443.0261 204.0249,503.9601 162.0479,538.3661 Z M1019.4911,382.8973 L1022.0351,391.8533 L1022.0351,411.8533 C1011.1841,459.1133 956.5251,476.5883 917.7041,448.6843 C880.4281,421.8913 883.8311,366.1903 925.1591,345.4773 C961.3581,327.3343 1006.1041,344.6593 1019.4911,382.8973 Z M84.5566,426.8748 C38.4516,443.7228 -13.0684,403.1468 3.0016,354.3198 C9.4796,334.6408 29.2276,318.6028 49.8146,316.1328 C123.9306,307.2418 150.1066,402.9198 84.5566,426.8748 Z M318.0495,17.3392 C326.4595,24.9322 336.6375,41.3442 348.6315,42.7752 C356.883732,43.760511 367.238203,38.9315983 377.724324,33.4487694 L378.848251,32.8590563 C379.597752,32.4645595 380.347565,32.0676667 381.096973,31.6702584 L382.341031,31.010122 C382.548271,30.9001267 382.75545,30.7901715 382.962552,30.6802966 L384.20412,30.0223275 C392.266747,25.7559271 400.16631,21.73273 406.9995,20.3182 C435.4775,14.4232 464.0145,30.2902 474.0565,57.3322 C477.6505,67.0122 481.7185,93.3012 489.0735,99.3152 C499.4195,107.7752 530.1215,103.0312 543.2955,105.0932 C566.7835,108.7672 591.2955,127.7212 593.9125,152.4762 C595.9735,171.9682 584.8305,189.9902 587.1455,209.2422 C589.6895,230.3982 624.5545,236.2972 638.9485,247.4402 C666.1575,268.5042 664.6485,308.7292 633.3915,324.7102 C606.8465,338.2822 569.3375,325.6682 559.9835,296.4052 C557.263933,287.898622 558.127529,278.841804 559.443758,269.830016 L559.639245,268.511608 C559.672243,268.29195 559.70542,268.072336 559.73873,267.852775 L559.978047,266.287186 L560.12468,265.333353 C560.244333,264.55481 560.363468,263.777351 560.480047,263.001363 L560.618583,262.070909 C562.742826,247.66059 563.700169,233.813043 550.3645,223.0242 C543.460981,217.439459 535.521743,213.698433 527.574771,210.053233 L524.686452,208.728817 C514.108128,203.865284 503.737574,198.795459 496.0115,189.3762 C481.4255,171.5942 485.4125,140.6982 458.4795,132.9082 C448.36522,129.98308 439.411766,130.83045 430.414039,131.668735 L429.186688,131.782636 C428.572763,131.839203 427.958377,131.894928 427.343148,131.948614 L426.111455,132.05291 C416.041605,132.876649 405.67908,132.94301 393.3595,127.0292 C388.251958,124.577179 382.070875,119.514908 375.706176,114.11415 L374.672594,113.235743 C374.155138,112.795415 373.636792,112.353669 373.118029,111.911716 L371.560966,110.586446 L370.522941,109.705831 C362.048663,102.530932 353.674188,95.8392208 347.4665,94.9072 C340.865326,93.9169391 332.721109,98.5282775 325.092531,103.758556 L324.214716,104.364513 C323.631188,104.769937 323.051179,105.17789 322.475627,105.586103 L321.615759,106.198335 C317.048871,109.461589 312.797196,112.668939 309.3405,114.6592 C279.7765,131.6792 240.8735,124.3492 220.6215,96.7672 C190.8345,56.1982 219.2765,3.5012 267.8315,0.1572 C285.9925,-1.0938 304.5455,5.1462 318.0495,17.3392 Z M1022.0351,259.8533 C1022.1831,261.9493 1022.2221,264.7833 1022.0351,266.8533 C1014.6991,348.0273 884.4641,327.9983 900.4841,249.8023 C914.1031,183.3223 1017.2861,192.7603 1022.0351,259.8533 Z M69.5261,296.8364 C-14.6729,301.1024 -26.5169,179.7324 57.8331,173.1544 C144.4341,166.4004 156.2281,292.4434 69.5261,296.8364 Z M907.8775,184.1947 C834.8605,200.4047 814.5295,92.0487 887.8285,85.1467 C953.0665,79.0037 971.2015,170.1367 907.8775,184.1947 Z M210.1611,106.2273 C227.5191,175.3793 132.8081,209.7423 89.0651,157.3233 C56.2521,118.0033 81.5081,61.6733 130.8121,56.1303 C165.1811,52.2663 201.4371,71.4743 210.1611,106.2273 Z M785.836,86.1545 C738.692,100.4295 721.248,29.4995 767.794,23.1115 C810.596,17.2365 824.447,74.4625 785.836,86.1545 Z M644.46,48.7776 C638.536,58.7536 622.505,59.9446 614.632,51.7566 C604.374,41.0886 611.257,23.5226 625.827,22.0676 C640.041,20.6486 652.154,35.8216 644.46,48.7776 Z" id="形状结合" fill="url(#linearGradient-1)"></path>
    </g>
</svg>